<svg xmlns="http://www.w3.org/2000/svg" viewBox="0 0 1200 600" width="1200" height="600">
  <defs>
    <linearGradient id="bg" x1="0%" y1="0%" x2="100%" y2="100%">
      <stop offset="0%" style="stop-color:#0d1117"/>
      <stop offset="100%" style="stop-color:#161b22"/>
    </linearGradient>
    <linearGradient id="layer1" x1="0%" y1="0%" x2="100%" y2="0%">
      <stop offset="0%" style="stop-color:#3b82f6;stop-opacity:0.15"/>
      <stop offset="100%" style="stop-color:#60a5fa;stop-opacity:0.05"/>
    </linearGradient>
    <linearGradient id="layer2" x1="0%" y1="0%" x2="100%" y2="0%">
      <stop offset="0%" style="stop-color:#8b5cf6;stop-opacity:0.15"/>
      <stop offset="100%" style="stop-color:#a78bfa;stop-opacity:0.05"/>
    </linearGradient>
    <linearGradient id="layer3" x1="0%" y1="0%" x2="100%" y2="0%">
      <stop offset="0%" style="stop-color:#10b981;stop-opacity:0.15"/>
      <stop offset="100%" style="stop-color:#34d399;stop-opacity:0.05"/>
    </linearGradient>
    <filter id="glow">
      <feGaussianBlur stdDeviation="2" result="blur"/>
      <feMerge><feMergeNode in="blur"/><feMergeNode in="SourceGraphic"/></feMerge>
    </filter>
  </defs>
  <rect width="1200" height="600" fill="url(#bg)"/>
  <text x="600" y="52" fill="#f0f6fc" font-family="Arial, sans-serif" font-size="32" font-weight="bold" text-anchor="middle" letter-spacing="2">MAGMA × Obsidian</text>
  <text x="600" y="82" fill="#8b949e" font-family="Arial, sans-serif" font-size="16" text-anchor="middle" letter-spacing="1">多智能体图基记忆 · 四维记忆引擎</text>
  <rect x="60" y="110" width="1080" height="120" rx="10" fill="url(#layer1)" stroke="#3b82f6" stroke-opacity="0.3" stroke-width="1"/>
  <text x="80" y="138" fill="#60a5fa" font-family="Arial, sans-serif" font-size="18" font-weight="bold">查询流程</text>
  <text x="80" y="158" fill="#8b949e" font-family="Arial, sans-serif" font-size="12">Query Process</text>
  <g filter="url(#glow)"><rect x="140" y="140" width="180" height="50" rx="6" fill="#1e3a5f" stroke="#3b82f6" stroke-width="1.5" stroke-opacity="0.6"/><text x="230" y="170" fill="#93c5fd" font-family="Arial, sans-serif" font-size="14" text-anchor="middle" font-weight="bold">意图分类</text></g>
  <text x="335" y="170" fill="#3b82f6" font-size="20">→</text>
  <g filter="url(#glow)"><rect x="360" y="140" width="180" height="50" rx="6" fill="#1e3a5f" stroke="#3b82f6" stroke-width="1.5" stroke-opacity="0.6"/><text x="450" y="170" fill="#93c5fd" font-family="Arial, sans-serif" font-size="14" text-anchor="middle" font-weight="bold">RRF 多信号融合</text></g>
  <text x="555" y="170" fill="#3b82f6" font-size="20">→</text>
  <g filter="url(#glow)"><rect x="580" y="140" width="180" height="50" rx="6" fill="#1e3a5f" stroke="#3b82f6" stroke-width="1.5" stroke-opacity="0.6"/><text x="670" y="170" fill="#93c5fd" font-family="Arial, sans-serif" font-size="14" text-anchor="middle" font-weight="bold">束搜索遍历</text></g>
  <text x="775" y="170" fill="#3b82f6" font-size="20">→</text>
  <g filter="url(#glow)"><rect x="800" y="140" width="180" height="50" rx="6" fill="#1e3a5f" stroke="#3b82f6" stroke-width="1.5" stroke-opacity="0.6"/><text x="890" y="170" fill="#93c5fd" font-family="Arial, sans-serif" font-size="14" text-anchor="middle" font-weight="bold">线性化输出</text></g>
  <polygon points="600,235 590,250 610,250" fill="#8b5cf6" opacity="0.5"/>
  <line x1="600" y1="230" x2="600" y2="250" stroke="#8b5cf6" stroke-width="1.5" opacity="0.5"/>
  <rect x="60" y="260" width="1080" height="150" rx="10" fill="url(#layer2)" stroke="#8b5cf6" stroke-opacity="0.3" stroke-width="1"/>
  <text x="80" y="288" fill="#a78bfa" font-family="Arial, sans-serif" font-size="18" font-weight="bold">数据结构</text>
  <text x="80" y="308" fill="#8b949e" font-family="Arial, sans-serif" font-size="12">Data Structure</text>
  <rect x="100" y="320" width="620" height="70" rx="8" fill="#1e1b3a" stroke="#8b5cf6" stroke-width="1.5" stroke-opacity="0.5"/>
  <text x="410" y="342" fill="#c4b5fd" font-family="Arial, sans-serif" font-size="15" text-anchor="middle" font-weight="bold">图数据库 · 四类关系边</text>
  <rect x="115" y="352" width="135" height="28" rx="4" fill="#ef4444" fill-opacity="0.15" stroke="#ef4444" stroke-width="1" stroke-opacity="0.5"/>
  <text x="182" y="371" fill="#fca5a5" font-family="Arial, sans-serif" font-size="13" text-anchor="middle">时序边</text>
  <rect x="260" y="352" width="135" height="28" rx="4" fill="#10b981" fill-opacity="0.15" stroke="#10b981" stroke-width="1" stroke-opacity="0.5"/>
  <text x="327" y="371" fill="#6ee7b7" font-family="Arial, sans-serif" font-size="13" text-anchor="middle">因果边</text>
  <rect x="405" y="352" width="135" height="28" rx="4" fill="#3b82f6" fill-opacity="0.15" stroke="#3b82f6" stroke-width="1" stroke-opacity="0.5"/>
  <text x="472" y="371" fill="#93c5fd" font-family="Arial, sans-serif" font-size="13" text-anchor="middle">语义边</text>
  <rect x="550" y="352" width="150" height="28" rx="4" fill="#f59e0b" fill-opacity="0.15" stroke="#f59e0b" stroke-width="1" stroke-opacity="0.5"/>
  <text x="625" y="371" fill="#fcd34d" font-family="Arial, sans-serif" font-size="13" text-anchor="middle">实体边</text>
  <rect x="750" y="320" width="360" height="70" rx="8" fill="#1e1b3a" stroke="#8b5cf6" stroke-width="1.5" stroke-opacity="0.5"/>
  <text x="930" y="350" fill="#c4b5fd" font-family="Arial, sans-serif" font-size="15" text-anchor="middle" font-weight="bold">向量数据库</text>
  <text x="930" y="374" fill="#8b949e" font-family="Arial, sans-serif" font-size="12" text-anchor="middle">FAISS · 余弦相似度</text>
  <polygon points="600,415 590,430 610,430" fill="#10b981" opacity="0.5"/>
  <line x1="600" y1="410" x2="600" y2="430" stroke="#10b981" stroke-width="1.5" opacity="0.5"/>
  <rect x="60" y="440" width="1080" height="130" rx="10" fill="url(#layer3)" stroke="#10b981" stroke-opacity="0.3" stroke-width="1"/>
  <text x="80" y="468" fill="#34d399" font-family="Arial, sans-serif" font-size="18" font-weight="bold">记忆演化</text>
  <text x="80" y="488" fill="#8b949e" font-family="Arial, sans-serif" font-size="12">Memory Evolution</text>
  <rect x="120" y="475" width="485" height="78" rx="8" fill="#0d3320" stroke="#10b981" stroke-width="1.5" stroke-opacity="0.5"/>
  <text x="362" y="498" fill="#6ee7b7" font-family="Arial, sans-serif" font-size="16" text-anchor="middle" font-weight="bold">快路径</text>
  <text x="362" y="518" fill="#8b949e" font-family="Arial, sans-serif" font-size="12" text-anchor="middle">Fast Path</text>
  <g font-family="Arial, sans-serif" font-size="11" fill="#6ee7b7" opacity="0.8"><text x="155" y="542">写入</text><text x="210" y="542">→</text><text x="230" y="542">嵌入</text><text x="285" y="542">→</text><text x="305" y="542">存储</text><text x="360" y="542">→</text><text x="380" y="542">加时序边</text><text x="465" y="542">→</text><text x="485" y="542">入队</text></g>
  <text x="620" y="518" fill="#10b981" font-size="24" opacity="0.6">→</text>
  <rect x="660" y="475" width="450" height="78" rx="8" fill="#0d3320" stroke="#f59e0b" stroke-width="1.5" stroke-opacity="0.5"/>
  <text x="885" y="498" fill="#fcd34d" font-family="Arial, sans-serif" font-size="16" text-anchor="middle" font-weight="bold">慢路径</text>
  <text x="885" y="518" fill="#8b949e" font-family="Arial, sans-serif" font-size="12" text-anchor="middle">Slow Path</text>
  <g font-family="Arial, sans-serif" font-size="11" fill="#fcd34d" opacity="0.8"><text x="690" y="542">取2-hop子图</text><text x="785" y="542">→</text><text x="800" y="542">LLM 推断</text><text x="875" y="542">→</text><text x="890" y="542">因果/实体边</text></g>
  <line x1="300" y1="585" x2="900" y2="585" stroke="#30363d" stroke-width="1"/>
</svg>